<?xml version="1.0" encoding="UTF-8" standalone="no"?>
<!-- Created with Inkscape (http://www.inkscape.org/) -->

<svg
   xmlns:dc="http://purl.org/dc/elements/1.1/"
   xmlns:cc="http://creativecommons.org/ns#"
   xmlns:rdf="http://www.w3.org/1999/02/22-rdf-syntax-ns#"
   xmlns:svg="http://www.w3.org/2000/svg"
   xmlns="http://www.w3.org/2000/svg"
   xmlns:sodipodi="http://sodipodi.sourceforge.net/DTD/sodipodi-0.dtd"
   xmlns:inkscape="http://www.inkscape.org/namespaces/inkscape"
   version="1.1"
   id="svg2"
   xml:space="preserve"
   width="893.13702"
   height="345.216"
   viewBox="0 0 893.13702 345.216"
   sodipodi:docname="desktop logo.svg"
   inkscape:version="0.92.3 (2405546, 2018-03-11)"><metadata
     id="metadata8"><rdf:RDF><cc:Work
         rdf:about=""><dc:format>image/svg+xml</dc:format><dc:type
           rdf:resource="http://purl.org/dc/dcmitype/StillImage" /><dc:title></dc:title></cc:Work></rdf:RDF></metadata><defs
     id="defs6"><clipPath
       clipPathUnits="userSpaceOnUse"
       id="clipPath18"><path
         d="M 0,558.506 H 796.203 V 0 H 0 Z"
         id="path16"
         inkscape:connector-curvature="0" /></clipPath><clipPath
       clipPathUnits="userSpaceOnUse"
       id="clipPath106"><path
         d="m 361.676,124.661 h 4.269 v -2.134 h -4.269 z"
         id="path104"
         inkscape:connector-curvature="0" /></clipPath></defs><sodipodi:namedview
     pagecolor="#ffffff"
     bordercolor="#666666"
     borderopacity="1"
     objecttolerance="10"
     gridtolerance="10"
     guidetolerance="10"
     inkscape:pageopacity="0"
     inkscape:pageshadow="2"
     inkscape:window-width="1920"
     inkscape:window-height="1012"
     id="namedview4"
     showgrid="false"
     inkscape:zoom="0.89637639"
     inkscape:cx="448.94709"
     inkscape:cy="408.27517"
     inkscape:window-x="-8"
     inkscape:window-y="-8"
     inkscape:window-maximized="1"
     inkscape:current-layer="g10" /><g
     id="g10"
     inkscape:groupmode="layer"
     inkscape:label="LOGO ISRAEL TACTICAL"
     transform="matrix(1.3333333,0,0,-1.3333333,0,345.21599)"><path
       d="m 197.44877,257.1165 h 16.03 v -79.423 h -16.03 z"
       style="fill:#ffffff;fill-opacity:1;fill-rule:nonzero;stroke:none"
       id="path116"
       inkscape:connector-curvature="0" /><g
       id="g118"
       transform="translate(224.69477,203.5339)"
       style="fill:#ffffff"><path
         d="m 0,0 15.605,1.518 c 0.938,-5.237 2.839,-9.083 5.716,-11.536 2.871,-2.46 6.742,-3.688 11.62,-3.688 5.163,0 9.059,1.092 11.676,3.277 2.616,2.187 3.925,4.742 3.925,7.667 0,1.878 -0.552,3.477 -1.653,4.795 -1.101,1.317 -3.025,2.464 -5.772,3.439 -1.876,0.653 -6.156,1.805 -12.837,3.469 -8.593,2.13 -14.63,4.746 -18.095,7.855 -4.874,4.369 -7.315,9.697 -7.315,15.982 0,4.044 1.147,7.828 3.446,11.349 2.289,3.521 5.595,6.204 9.913,8.046 4.313,1.843 9.522,2.765 15.626,2.765 9.97,0 17.473,-2.187 22.511,-6.559 5.039,-4.369 7.684,-10.202 7.936,-17.498 L 46.27,30.177 c -0.688,4.081 -2.16,7.017 -4.418,8.805 -2.257,1.789 -5.645,2.679 -10.158,2.679 -4.657,0 -8.309,-0.955 -10.944,-2.869 -1.695,-1.23 -2.543,-2.872 -2.543,-4.93 0,-1.88 0.788,-3.485 2.38,-4.821 2.022,-1.699 6.938,-3.469 14.739,-5.31 7.798,-1.843 13.57,-3.748 17.308,-5.716 3.736,-1.97 6.662,-4.661 8.774,-8.071 2.114,-3.415 3.171,-7.632 3.171,-12.652 0,-4.551 -1.268,-8.811 -3.792,-12.785 -2.529,-3.975 -6.106,-6.927 -10.728,-8.857 -4.625,-1.933 -10.383,-2.9 -17.281,-2.9 -10.041,0 -17.752,2.322 -23.131,6.963 C 4.263,-15.647 1.049,-8.885 0,0"
         style="fill:#ffffff;fill-opacity:1;fill-rule:nonzero;stroke:none"
         id="path120"
         inkscape:connector-curvature="0" /></g><g
       id="g122"
       transform="translate(318.84977,223.5273)"
       style="fill:#ffffff"><path
         d="m 0,0 h 11.868 c 7.694,0 12.495,0.325 14.411,0.976 1.915,0.65 3.414,1.767 4.496,3.356 1.084,1.588 1.622,3.577 1.622,5.96 0,2.672 -0.711,4.83 -2.139,6.474 -1.428,1.643 -3.435,2.681 -6.037,3.115 -1.301,0.181 -5.201,0.271 -11.705,0.271 H 0 Z m -16.033,-45.834 v 79.423 h 33.75 c 8.486,0 14.655,-0.717 18.503,-2.141 3.846,-1.428 6.925,-3.965 9.237,-7.612 2.307,-3.646 3.467,-7.818 3.467,-12.514 0,-5.958 -1.756,-10.88 -5.256,-14.764 -3.506,-3.881 -8.738,-6.328 -15.709,-7.342 3.466,-2.022 6.329,-4.242 8.586,-6.662 2.256,-2.42 5.299,-6.719 9.131,-12.893 l 9.697,-15.495 H 36.195 l -11.597,17.283 c -4.117,6.175 -6.931,10.067 -8.451,11.674 -1.515,1.607 -3.124,2.71 -4.821,3.304 -1.697,0.596 -4.39,0.897 -8.072,0.897 H 0 v -33.158 z"
         style="fill:#ffffff;fill-opacity:1;fill-rule:nonzero;stroke:none"
         id="path124"
         inkscape:connector-curvature="0" /></g><g
       id="g126"
       transform="translate(424.98527,209.1145)"
       style="fill:#ffffff"><path
         d="M 0,0 -10.946,29.474 -21.667,0 Z M 29.526,-31.421 H 12.078 l -6.931,18.04 h -31.745 l -6.56,-18.04 h -17.01 l 30.933,79.423 h 16.954 z"
         style="fill:#ffffff;fill-opacity:1;fill-rule:nonzero;stroke:none"
         id="path128"
         inkscape:connector-curvature="0" /></g><g
       id="g130"
       transform="translate(463.01677,177.6934)"
       style="fill:#ffffff"><path
         d="M 0,0 V 79.423 H 58.888 V 65.986 H 16.037 V 48.379 H 55.909 V 34.998 H 16.037 V 13.381 H 60.401 V 0 Z"
         style="fill:#ffffff;fill-opacity:1;fill-rule:nonzero;stroke:none"
         id="path132"
         inkscape:connector-curvature="0" /></g><g
       id="g134"
       transform="translate(537.45377,177.6934)"
       style="fill:#ffffff"><path
         d="M 0,0 V 78.773 H 16.037 V 13.381 H 55.913 V 0 Z"
         style="fill:#ffffff;fill-opacity:1;fill-rule:nonzero;stroke:none"
         id="path136"
         inkscape:connector-curvature="0" /></g><path
       d="m 604.30677,257.1165 h 16.035 v -79.423 h -16.035 z"
       style="fill:#ffffff;fill-opacity:1;fill-rule:nonzero;stroke:none"
       id="path138"
       inkscape:connector-curvature="0" /><g
       id="g140"
       transform="translate(259.67437,98.378397)"
       style="fill:#ffffff"><path
         d="m 0,0 v 52.338 h -18.693 v 10.655 h 50.06 V 52.338 H 12.718 V 0 Z"
         style="fill:#ffffff;fill-opacity:1;fill-rule:nonzero;stroke:none"
         id="path142"
         inkscape:connector-curvature="0" /></g><g
       id="g144"
       transform="translate(326.10647,123.3019)"
       style="fill:#ffffff"><path
         d="M 0,0 -8.685,23.375 -17.194,0 Z M 23.414,-24.924 H 9.579 L 4.077,-10.615 H -21.1 l -5.199,-14.309 h -13.496 l 24.536,62.993 H -1.81 Z"
         style="fill:#ffffff;fill-opacity:1;fill-rule:nonzero;stroke:none"
         id="path146"
         inkscape:connector-curvature="0" /></g><g
       id="g148"
       transform="translate(396.57637,121.5404)"
       style="fill:#ffffff"><path
         d="m 0,0 12.33,-3.913 c -1.89,-6.875 -5.034,-11.982 -9.435,-15.313 -4.398,-3.34 -9.976,-5.007 -16.735,-5.007 -8.361,0 -15.24,2.856 -20.621,8.571 -5.39,5.716 -8.08,13.525 -8.08,23.438 0,10.485 2.704,18.627 8.12,24.429 5.412,5.801 12.533,8.699 21.353,8.699 7.706,0 13.964,-2.276 18.778,-6.831 2.868,-2.693 5.015,-6.56 6.445,-11.599 L -0.432,19.466 c -0.75,3.264 -2.299,5.841 -4.661,7.734 -2.362,1.891 -5.238,2.835 -8.618,2.835 -4.669,0 -8.459,-1.676 -11.365,-5.026 -2.91,-3.354 -4.361,-8.782 -4.361,-16.287 0,-7.963 1.43,-13.637 4.297,-17.015 2.868,-3.383 6.587,-5.067 11.169,-5.067 3.385,0 6.289,1.071 8.73,3.223 C -2.81,-7.992 -1.065,-4.613 0,0"
         style="fill:#ffffff;fill-opacity:1;fill-rule:nonzero;stroke:none"
         id="path150"
         inkscape:connector-curvature="0" /></g><g
       id="g152"
       transform="translate(433.99897,98.378397)"
       style="fill:#ffffff"><path
         d="M 0,0 V 52.338 H -18.691 V 62.993 H 31.367 V 52.338 H 12.718 V 0 Z"
         style="fill:#ffffff;fill-opacity:1;fill-rule:nonzero;stroke:none"
         id="path154"
         inkscape:connector-curvature="0" /></g><path
       d="m 473.18777,161.3705 h 12.72 V 98.377497 h -12.72 z"
       style="fill:#ffffff;fill-opacity:1;fill-rule:nonzero;stroke:none"
       id="path156"
       inkscape:connector-curvature="0" /><g
       id="g158"
       transform="translate(538.32507,121.5404)"
       style="fill:#ffffff"><path
         d="m 0,0 12.337,-3.913 c -1.891,-6.875 -5.035,-11.982 -9.431,-15.313 -4.399,-3.34 -9.979,-5.007 -16.737,-5.007 -8.366,0 -15.241,2.856 -20.63,8.571 -5.382,5.716 -8.073,13.525 -8.073,23.438 0,10.485 2.706,18.627 8.119,24.429 5.414,5.801 12.533,8.699 21.353,8.699 7.707,0 13.969,-2.276 18.78,-6.831 2.862,-2.693 5.013,-6.56 6.443,-11.599 L -0.423,19.466 c -0.751,3.264 -2.302,5.841 -4.668,7.734 -2.362,1.891 -5.234,2.835 -8.611,2.835 -4.672,0 -8.462,-1.676 -11.368,-5.026 -2.905,-3.354 -4.361,-8.782 -4.361,-16.287 0,-7.963 1.433,-13.637 4.293,-17.015 2.868,-3.383 6.595,-5.067 11.179,-5.067 3.375,0 6.284,1.071 8.72,3.223 C -2.808,-7.992 -1.057,-4.613 0,0"
         style="fill:#ffffff;fill-opacity:1;fill-rule:nonzero;stroke:none"
         id="path160"
         inkscape:connector-curvature="0" /></g><g
       id="g162"
       transform="translate(594.96157,123.3019)"
       style="fill:#ffffff"><path
         d="M 0,0 -8.68,23.375 -17.185,0 Z M 23.418,-24.924 H 9.583 l -5.499,14.309 h -25.182 l -5.195,-14.309 h -13.494 l 24.534,62.993 h 13.448 z"
         style="fill:#ffffff;fill-opacity:1;fill-rule:nonzero;stroke:none"
         id="path164"
         inkscape:connector-curvature="0" /></g><g
       id="g166"
       transform="translate(625.46967,98.378397)"
       style="fill:#ffffff"><path
         d="M 0,0 V 62.478 H 12.72 V 10.615 H 44.344 V 0 Z"
         style="fill:#ffffff;fill-opacity:1;fill-rule:nonzero;stroke:none"
         id="path168"
         inkscape:connector-curvature="0" /></g><g
       id="g170"
       transform="translate(498.32567,68.139197)"
       style="fill:#ffffff"><path
         d="m 0,0 5.739,0.559 c 0.344,-1.922 1.044,-3.34 2.099,-4.24 1.055,-0.905 2.483,-1.355 4.274,-1.355 1.899,0 3.331,0.4 4.294,1.205 0.963,0.804 1.44,1.742 1.44,2.818 0,0.688 -0.2,1.276 -0.608,1.759 C 16.835,1.234 16.124,1.655 15.12,2.014 14.432,2.251 12.856,2.677 10.4,3.289 7.24,4.073 5.022,5.036 3.748,6.175 1.955,7.784 1.055,9.744 1.055,12.053 c 0,1.489 0.421,2.877 1.269,4.174 0.84,1.296 2.056,2.28 3.644,2.955 1.585,0.68 3.5,1.018 5.748,1.018 3.664,0 6.424,-0.805 8.271,-2.41 1.855,-1.609 2.831,-3.752 2.923,-6.433 l -5.895,-0.259 c -0.255,1.497 -0.799,2.577 -1.626,3.236 -0.828,0.654 -2.077,0.984 -3.732,0.984 -1.718,0 -3.058,-0.355 -4.025,-1.055 -0.626,-0.45 -0.941,-1.055 -0.941,-1.814 0,-0.688 0.294,-1.28 0.882,-1.772 0.74,-0.625 2.55,-1.275 5.416,-1.951 2.866,-0.675 4.988,-1.376 6.36,-2.101 1.38,-0.725 2.45,-1.714 3.229,-2.965 0.778,-1.259 1.161,-2.81 1.161,-4.652 0,-1.676 -0.458,-3.24 -1.39,-4.703 -0.93,-1.459 -2.245,-2.547 -3.944,-3.256 -1.697,-0.709 -3.819,-1.063 -6.352,-1.063 -3.694,0 -6.527,0.85 -8.503,2.555 C 1.568,-5.749 0.386,-3.264 0,0"
         style="fill:#ffffff;fill-opacity:1;fill-rule:nonzero;stroke:none"
         id="path172"
         inkscape:connector-curvature="0" /></g><g
       id="g174"
       transform="translate(545.71067,69.377497)"
       style="fill:#ffffff"><path
         d="m 0,0 5.72,-1.814 c -0.882,-3.185 -2.337,-5.553 -4.375,-7.1 -2.037,-1.547 -4.622,-2.322 -7.757,-2.322 -3.878,0 -7.067,1.326 -9.56,3.977 -2.496,2.648 -3.744,6.267 -3.744,10.861 0,4.861 1.255,8.635 3.765,11.324 2.505,2.689 5.807,4.036 9.897,4.036 3.571,0 6.475,-1.059 8.703,-3.169 1.328,-1.247 2.327,-3.039 2.988,-5.378 L -0.2,9.022 c -0.342,1.513 -1.063,2.71 -2.158,3.586 -1.098,0.875 -2.43,1.313 -3.996,1.313 -2.16,0 -3.917,-0.776 -5.268,-2.331 -1.346,-1.551 -2.017,-4.069 -2.017,-7.55 0,-3.69 0.658,-6.321 1.988,-7.884 1.33,-1.568 3.054,-2.352 5.18,-2.352 1.564,0 2.913,0.497 4.045,1.493 C -1.301,-3.702 -0.494,-2.139 0,0"
         style="fill:#ffffff;fill-opacity:1;fill-rule:nonzero;stroke:none"
         id="path176"
         inkscape:connector-curvature="0" /></g><g
       id="g178"
       transform="translate(556.51107,58.641797)"
       style="fill:#ffffff"><path
         d="m 0,0 v 29.197 h 5.893 v -11.49 h 11.551 v 11.49 h 5.897 V 0 H 17.444 V 12.766 H 5.893 V 0 Z"
         style="fill:#ffffff;fill-opacity:1;fill-rule:nonzero;stroke:none"
         id="path180"
         inkscape:connector-curvature="0" /></g><g
       id="g182"
       transform="translate(590.82567,73.258897)"
       style="fill:#ffffff"><path
         d="m 0,0 c 0,-3.306 0.761,-5.812 2.289,-7.517 1.526,-1.705 3.464,-2.56 5.82,-2.56 2.349,0 4.278,0.846 5.787,2.539 1.501,1.693 2.258,4.232 2.258,7.617 0,3.348 -0.732,5.845 -2.2,7.492 C 12.485,9.214 10.535,10.04 8.109,10.04 5.676,10.04 3.715,9.206 2.226,7.538 0.742,5.875 0,3.361 0,0 m -6.072,-0.2 c 0,2.977 0.444,5.47 1.334,7.492 0.66,1.484 1.567,2.823 2.718,4.003 1.144,1.183 2.405,2.059 3.771,2.63 1.82,0.772 3.921,1.155 6.296,1.155 4.302,0 7.744,-1.338 10.324,-4.007 2.586,-2.668 3.876,-6.378 3.876,-11.131 0,-4.716 -1.282,-8.401 -3.842,-11.065 -2.562,-2.664 -5.995,-3.994 -10.279,-3.994 -4.34,0 -7.795,1.325 -10.355,3.977 -2.566,2.647 -3.843,6.295 -3.843,10.94"
         style="fill:#ffffff;fill-opacity:1;fill-rule:nonzero;stroke:none"
         id="path184"
         inkscape:connector-curvature="0" /></g><g
       id="g186"
       transform="translate(622.55337,73.258897)"
       style="fill:#ffffff"><path
         d="m 0,0 c 0,-3.306 0.761,-5.812 2.289,-7.517 1.53,-1.705 3.469,-2.56 5.82,-2.56 2.345,0 4.278,0.846 5.783,2.539 1.505,1.693 2.261,4.232 2.261,7.617 0,3.348 -0.735,5.845 -2.199,7.492 C 12.489,9.214 10.535,10.04 8.109,10.04 5.676,10.04 3.719,9.206 2.23,7.538 0.746,5.875 0,3.361 0,0 m -6.075,-0.2 c 0,2.977 0.446,5.47 1.337,7.492 0.658,1.484 1.565,2.823 2.72,4.003 1.142,1.183 2.403,2.059 3.773,2.63 1.816,0.772 3.913,1.155 6.296,1.155 4.298,0 7.74,-1.338 10.325,-4.007 2.58,-2.668 3.871,-6.378 3.871,-11.131 0,-4.716 -1.282,-8.401 -3.842,-11.065 -2.564,-2.664 -5.991,-3.994 -10.279,-3.994 -4.34,0 -7.799,1.325 -10.359,3.977 -2.562,2.647 -3.842,6.295 -3.842,10.94"
         style="fill:#ffffff;fill-opacity:1;fill-rule:nonzero;stroke:none"
         id="path188"
         inkscape:connector-curvature="0" /></g><g
       id="g190"
       transform="translate(649.56137,58.641797)"
       style="fill:#ffffff"><path
         d="M 0,0 V 28.959 H 5.895 V 4.92 H 20.554 V 0 Z"
         style="fill:#ffffff;fill-opacity:1;fill-rule:nonzero;stroke:none"
         id="path192"
         inkscape:connector-curvature="0" /></g><g
       id="g194"
       transform="translate(158.21257,166.0611)"
       style="fill:#ffffff"><path
         d="M 0,0 39.236,-42.684 75.281,-74.883 24.894,-8.209 C -0.127,20.665 -63.463,92.411 -63.463,92.411 l 46.83,-242.027 22.541,-16.885 -48.017,215.9 z"
         style="fill:#ffffff;fill-opacity:1;fill-rule:nonzero;stroke:none"
         id="path196"
         inkscape:connector-curvature="0" /></g><g
       id="g198"
       transform="translate(87.592567,162.4444)"
       style="fill:#ffffff"><path
         d="m 0,0 c 0,0 75.225,-1.073 142.789,-5.478 l -175.794,-7.449 244.948,-133.948 5.985,-12.799 c -27.396,13.308 -54.008,27.396 -80.62,40.704 -37.57,19.566 -112.71,57.918 -112.71,57.918 0,0 -94.707,46.964 -111.928,61.052 z"
         style="fill:#ffffff;fill-opacity:1;fill-rule:nonzero;stroke:none"
         id="path200"
         inkscape:connector-curvature="0" /></g></g></svg>