<?xml version="1.0" encoding="UTF-8" standalone="no"?>
<!-- Created with Inkscape (http://www.inkscape.org/) -->

<svg
   xmlns:dc="http://purl.org/dc/elements/1.1/"
   xmlns:cc="http://creativecommons.org/ns#"
   xmlns:rdf="http://www.w3.org/1999/02/22-rdf-syntax-ns#"
   xmlns:svg="http://www.w3.org/2000/svg"
   xmlns="http://www.w3.org/2000/svg"
   xmlns:sodipodi="http://sodipodi.sourceforge.net/DTD/sodipodi-0.dtd"
   xmlns:inkscape="http://www.inkscape.org/namespaces/inkscape"
   version="1.1"
   id="svg2"
   xml:space="preserve"
   width="407.01099"
   height="345.216"
   viewBox="0 0 407.01098 345.216"
   sodipodi:docname="MOBILE LOGO ISRAEL TACTICAL.svg"
   inkscape:version="0.92.3 (2405546, 2018-03-11)"><metadata
     id="metadata8"><rdf:RDF><cc:Work
         rdf:about=""><dc:format>image/svg+xml</dc:format><dc:type
           rdf:resource="http://purl.org/dc/dcmitype/StillImage" /><dc:title></dc:title></cc:Work></rdf:RDF></metadata><defs
     id="defs6"><clipPath
       clipPathUnits="userSpaceOnUse"
       id="clipPath18"><path
         d="M 0,558.506 H 796.203 V 0 H 0 Z"
         id="path16"
         inkscape:connector-curvature="0" /></clipPath><clipPath
       clipPathUnits="userSpaceOnUse"
       id="clipPath106"><path
         d="m 361.676,124.661 h 4.269 v -2.134 h -4.269 z"
         id="path104"
         inkscape:connector-curvature="0" /></clipPath></defs><sodipodi:namedview
     pagecolor="#ffffff"
     bordercolor="#666666"
     borderopacity="1"
     objecttolerance="10"
     gridtolerance="10"
     guidetolerance="10"
     inkscape:pageopacity="0"
     inkscape:pageshadow="2"
     inkscape:window-width="1920"
     inkscape:window-height="1012"
     id="namedview4"
     showgrid="false"
     inkscape:zoom="0.89637639"
     inkscape:cx="315.37261"
     inkscape:cy="243.05631"
     inkscape:window-x="-8"
     inkscape:window-y="-8"
     inkscape:window-maximized="1"
     inkscape:current-layer="g10" /><g
     id="g10"
     inkscape:groupmode="layer"
     inkscape:label="LOGO ISRAEL TACTICAL"
     transform="matrix(1.3333333,0,0,-1.3333333,0,345.21599)"><path
       inkscape:connector-curvature="0"
       id="path196"
       style="fill:#ffffff;fill-opacity:1;fill-rule:nonzero;stroke:none"
       d="m 158.05998,164.84622 39.236,-42.684 36.045,-32.198998 -50.387,66.673998 c -25.021,28.874 -88.356997,100.62 -88.356997,100.62 l 46.829997,-242.026998 22.541,-16.8850002 -48.017,215.8999982 z" /><path
       inkscape:connector-curvature="0"
       id="path200"
       style="fill:#1e6db6;fill-opacity:1;fill-rule:nonzero;stroke:none"
       d="m 87.439985,161.22952 c 0,0 75.224995,-1.073 142.788995,-5.478 l -175.793995,-7.449 244.947995,-133.947998 5.985,-12.7990001 c -27.396,13.3080001 -54.008,27.3960001 -80.62,40.7040001 -37.57,19.566 -112.71,57.917998 -112.71,57.917998 0,0 -94.706995,46.964 -111.92799526,61.052 z" /><path
       d="m 158.05998,164.84622 39.236,-42.684 36.045,-32.198998 -50.387,66.673998 c -25.021,28.874 -88.356997,100.62 -88.356997,100.62 l 46.829997,-242.026998 22.541,-16.8850002 -48.017,215.8999982 z"
       style="fill:#ffffff;fill-opacity:0;fill-rule:nonzero;stroke:none"
       id="path4940"
       inkscape:connector-curvature="0" /><path
       d="m 87.439985,161.22952 c 0,0 75.224995,-1.073 142.788995,-5.478 l -175.793995,-7.449 244.947995,-133.947998 5.985,-12.7990001 c -27.396,13.3080001 -54.008,27.3960001 -80.62,40.7040001 -37.57,19.566 -112.71,57.917998 -112.71,57.917998 0,0 -94.706995,46.964 -111.92799526,61.052 z"
       style="fill:#1e6db6;fill-opacity:1;fill-rule:nonzero;stroke:none"
       id="path4942"
       inkscape:connector-curvature="0" /><path
       inkscape:connector-curvature="0"
       id="path4944"
       style="fill:#ffffff;fill-opacity:0;fill-rule:nonzero;stroke:none"
       d="m 158.05998,164.84622 39.236,-42.684 36.045,-32.198998 -50.387,66.673998 c -25.021,28.874 -88.356997,100.62 -88.356997,100.62 l 46.829997,-242.026998 22.541,-16.8850002 -48.017,215.8999982 z" /><path
       inkscape:connector-curvature="0"
       id="path4946"
       style="fill:#ffffff;fill-opacity:1;fill-rule:nonzero;stroke:none"
       d="m 87.439985,161.22952 c 0,0 75.224995,-1.073 142.788995,-5.478 l -175.793995,-7.449 244.947995,-133.947998 5.985,-12.7990001 c -27.396,13.3080001 -54.008,27.3960001 -80.62,40.7040001 -37.57,19.566 -112.71,57.917998 -112.71,57.917998 0,0 -94.706995,46.964 -111.92799526,61.052 z" /></g></svg>