<?xml version="1.0" encoding="UTF-8" standalone="no"?>
<!-- Created with Inkscape (http://www.inkscape.org/) -->

<svg
   xmlns:dc="http://purl.org/dc/elements/1.1/"
   xmlns:cc="http://creativecommons.org/ns#"
   xmlns:rdf="http://www.w3.org/1999/02/22-rdf-syntax-ns#"
   xmlns:svg="http://www.w3.org/2000/svg"
   xmlns="http://www.w3.org/2000/svg"
   xmlns:sodipodi="http://sodipodi.sourceforge.net/DTD/sodipodi-0.dtd"
   xmlns:inkscape="http://www.inkscape.org/namespaces/inkscape"
   version="1.1"
   id="svg2"
   xml:space="preserve"
   width="407.01099"
   height="345.216"
   viewBox="0 0 407.01098 345.216"
   sodipodi:docname="MOBILE LOGO-2.svg"
   inkscape:version="0.92.3 (2405546, 2018-03-11)"><metadata
     id="metadata8"><rdf:RDF><cc:Work
         rdf:about=""><dc:format>image/svg+xml</dc:format><dc:type
           rdf:resource="http://purl.org/dc/dcmitype/StillImage" /><dc:title></dc:title></cc:Work></rdf:RDF></metadata><defs
     id="defs6"><clipPath
       clipPathUnits="userSpaceOnUse"
       id="clipPath18"><path
         d="M 0,558.506 H 796.203 V 0 H 0 Z"
         id="path16"
         inkscape:connector-curvature="0" /></clipPath><clipPath
       clipPathUnits="userSpaceOnUse"
       id="clipPath106"><path
         d="m 361.676,124.661 h 4.269 v -2.134 h -4.269 z"
         id="path104"
         inkscape:connector-curvature="0" /></clipPath></defs><sodipodi:namedview
     pagecolor="#ffffff"
     bordercolor="#666666"
     borderopacity="1"
     objecttolerance="10"
     gridtolerance="10"
     guidetolerance="10"
     inkscape:pageopacity="0"
     inkscape:pageshadow="2"
     inkscape:window-width="1920"
     inkscape:window-height="1012"
     id="namedview4"
     showgrid="false"
     inkscape:zoom="1.7927528"
     inkscape:cx="283.20591"
     inkscape:cy="177.23008"
     inkscape:window-x="-8"
     inkscape:window-y="-8"
     inkscape:window-maximized="1"
     inkscape:current-layer="g10" /><g
     id="g10"
     inkscape:groupmode="layer"
     inkscape:label="LOGO ISRAEL TACTICAL"
     transform="matrix(1.3333333,0,0,-1.3333333,0,345.21599)"><g
       id="g122"
       transform="translate(356.562,415.3358)" /><g
       id="g194"
       transform="translate(158.69343,164.9957)"><path
         d="M 0,0 39.236,-42.684 75.281,-74.883 24.894,-8.209 C -0.127,20.665 -63.463,92.411 -63.463,92.411 l 46.83,-242.027 22.541,-16.885 -48.017,215.9 z"
         style="fill:#1e6db6;fill-opacity:1;fill-rule:nonzero;stroke:none"
         id="path196"
         inkscape:connector-curvature="0" /></g><g
       id="g198"
       transform="translate(88.073434,161.379)"><path
         d="m 0,0 c 0,0 75.225,-1.073 142.789,-5.478 l -175.794,-7.449 244.948,-133.948 5.985,-12.799 c -27.396,13.308 -54.008,27.396 -80.62,40.704 -37.57,19.566 -112.71,57.918 -112.71,57.918 0,0 -94.707,46.964 -111.928,61.052 z"
         style="fill:#1e6db6;fill-opacity:1;fill-rule:nonzero;stroke:none"
         id="path200"
         inkscape:connector-curvature="0" /></g></g></svg>