<?xml version="1.0" standalone="no"?>
<!DOCTYPE svg PUBLIC "-//W3C//DTD SVG 20010904//EN"
 "http://www.w3.org/TR/2001/REC-SVG-20010904/DTD/svg10.dtd">
<svg version="1.0" xmlns="http://www.w3.org/2000/svg"
 width="814.000000pt" height="814.000000pt" viewBox="0 0 814.000000 814.000000"
 preserveAspectRatio="xMidYMid meet">
<metadata>
Created by potrace 1.11, written by Peter Selinger 2001-2013
</metadata>
<g transform="translate(0.000000,814.000000) scale(0.100000,-0.100000)"
fill="#000000" stroke="none">
<path d="M2547 7440 c93 -462 488 -2527 484 -2532 -3 -3 -161 -3 -351 2 -190
5 -864 9 -1499 10 -1003 0 -1152 -2 -1141 -14 37 -46 393 -264 765 -471 508
-282 1041 -561 1955 -1025 338 -171 618 -314 622 -318 4 -4 95 -464 203 -1022
108 -558 198 -1023 201 -1033 3 -10 128 -110 278 -223 259 -194 326 -234 312
-186 -19 66 -487 2195 -483 2198 5 5 355 -174 1677 -856 1050 -541 2547 -1300
2565 -1300 14 0 -1 40 -64 176 l-69 149 -2101 1150 c-1155 633 -2106 1156
-2112 1162 -9 9 -312 1344 -306 1349 1 1 233 11 515 24 412 17 516 19 528 9 9
-7 181 -192 382 -412 367 -400 367 -400 826 -811 253 -226 466 -415 474 -420
9 -5 -68 101 -169 235 -687 907 -1080 1431 -1076 1435 2 2 252 15 556 28 303
13 554 25 556 28 5 5 -191 17 -815 49 -223 11 -408 23 -411 27 -4 4 -247 282
-540 617 -700 801 -1693 1931 -1736 1975 l-33 35 7 -35z m1114 -1757 c299
-351 581 -680 628 -732 l86 -94 -110 7 c-60 3 -272 11 -470 17 -198 6 -362 13
-364 15 -2 2 -73 312 -156 689 -84 376 -156 696 -159 710 -4 14 -4 25 -2 25 3
0 249 -287 547 -637z m-567 -1070 c54 -264 197 -1026 193 -1029 -2 -3 -410
217 -905 488 -495 271 -899 495 -896 497 3 4 1393 67 1536 70 65 1 67 0 72
-26z"/>
</g>
</svg>
